<svg xmlns="http://www.w3.org/2000/svg" width="200" height="36" viewBox="0 0 200 36" fill="none" role="img" aria-label="Read the Docs">
  <rect x="0.5" y="0.5" width="199" height="35" rx="17.5" fill="#0D1117" stroke="#30363D"/>
  <g transform="translate(14 10)" fill="none" stroke="#E6EDF3" stroke-width="1.6" stroke-linecap="round" stroke-linejoin="round">
    <path d="M8 4.028A5.978 5.978 0 0 0 4 2.5c-.701 0-1.375.12-2 .342v9.5A5.991 5.991 0 0 1 4 12c1.537 0 2.939.578 4 1.528m0-9.5A5.977 5.977 0 0 1 12 2.5c.701 0 1.375.12 2 .342v9.5A5.991 5.991 0 0 0 12 12a5.977 5.977 0 0 0-4 1.528m0-9.5v9.5"/>
  </g>
  <text x="38" y="23" font-family="-apple-system, BlinkMacSystemFont, 'Segoe UI', Helvetica, Arial, sans-serif" font-size="13" font-weight="600" fill="#E6EDF3" letter-spacing="-0.1">Read the Docs</text>
  <text x="155" y="23" font-family="-apple-system, BlinkMacSystemFont, 'Segoe UI', Helvetica, Arial, sans-serif" font-size="13" font-weight="500" fill="#8B949E">→</text>
</svg>
